<?xml version="1.0" encoding="UTF-8" standalone="no"?><!DOCTYPE svg PUBLIC "-//W3C//DTD SVG 1.1//EN" "http://www.w3.org/Graphics/SVG/1.1/DTD/svg11.dtd"><svg width="100%" height="100%" viewBox="0 0 1024 579" version="1.1" xmlns="http://www.w3.org/2000/svg" xmlns:xlink="http://www.w3.org/1999/xlink" xml:space="preserve" xmlns:serif="http://www.serif.com/" style="fill-rule:evenodd;clip-rule:evenodd;stroke-linecap:round;stroke-linejoin:round;stroke-miterlimit:1.5;"><g id="FACTORYMATCH"><path d="M797.471,262.646l-0.159,-0.579l0.309,-0.402l10.02,-1.945l7.141,-0.979c0,-0 10.479,-1.094 17.224,1.418c8.005,2.982 11.299,4.344 17.353,7.768c6.053,3.425 6.855,3.559 8.266,7.21c1.411,3.651 2.144,6.235 3.185,10.088c1.05,3.888 1.881,8.936 1.881,8.936l0.132,1.36l-1.25,0.721l-4.259,1.108l-4.144,1.195l-3.946,1.134l-5.485,1.442l-3.826,1.341l-3.584,1.025l-4.199,1.074l-3.471,1.173l-3.73,0.975l-3.779,1.119l-3.525,0.95l-1.99,0.705c0,-0 -0.9,0.155 -1.07,0.153c-0.17,-0.003 -0.874,-1.618 -0.874,-1.618l-0.769,-2.571l-0.846,-3.141l-1.255,-3.768c-0,0 -5.175,-16.121 -7.813,-23.199c-2.638,-7.078 -5.537,-12.693 -5.537,-12.693Z" style="fill:#737373;"/><path d="M860.473,275.055l1.723,1.067l1.524,1.105l1.376,0.694l1.419,1.123l1.414,1.056l0.173,0.473l-0.646,0.542l-0.766,0.692c-0,-0 -0.197,0.689 -0.332,0.673c-0.135,-0.015 -0.033,2.042 -0.033,2.042l-0.058,7.312l-0.665,2.356l-4.705,-17.515l-0.36,-0.765l-0.064,-0.855Z" style="fill:#737373;"/><path d="M352.021,203.519l0.902,3.683l0.717,5.371l0.859,6.057l0.773,4.678l0.44,3.149l0.034,1.171l-1.615,0.747l-3.242,0.513l-3.747,-0.08l-2.534,-0.317l-1.217,-0.838l-0.535,-0.969l0.111,-1.128l0.668,-2.192l1.567,-4.298l2.106,-5.293l1.82,-4.58l1.765,-3.734l0.445,-1.308l0.683,-0.632Z" style="fill:#737373;"/><path d="M358.65,189.356c-0.077,-0.499 -0.045,-0.986 -0.067,-1.499c-0,-0 0.703,-2.319 3.79,-8.624c3.086,-6.305 7.925,-17.055 14.699,-21.997c3.12,-2.276 3.61,-2.564 8.794,-4.513c1.212,-0.456 2.184,-0.623 4.1,-1.274c4.104,-1.394 4.866,-1.745 4.866,-1.745l0.808,-0.24l0.68,0.398l0.383,1.696c-0,-0 5.4,19.489 6.824,28.768c1.424,9.278 5.023,26.988 5.023,26.988l-0.21,0.579l-1.133,0.571l-1.889,0.643l-2.112,0.795l-2.297,0.811l-0.859,0.195l-0.637,-0.49l-0.153,-0.548l-0.281,-0.976l-0.552,-1.118l-0.676,-1.182l-0.942,-0.95l-1.385,-0.994l-1.636,-0.521l-1.883,-0.05l-2.252,-0.267l-3.111,-0.212l-2.915,-0.004l-3.733,-0.099l-4.11,-0.184l-3.347,0.096l-1.658,0.531l-1.216,0.549l-1.449,0.976l-1.079,1.336l-0.941,1.713l-0.571,1.509l-0.568,2.078l-0.318,2.059l-0.147,1.691l-0.172,1.819l-0.359,2.577l-0.126,0.509l-0.377,-1.404l-0.323,-2.558l-0.31,-3.828l-1.428,-8.176l-0.707,-4.814l-0.932,-5.083l-0.813,-4.617l-0.293,-0.92Z" style="fill:#737373;"/></g><g id="FACTORYTINT" opacity="0.51"><path d="M405.781,150.214l-0.467,-1.388l-0.433,-1.061l0.343,-0.705l1.354,-0.306l2.7,-0.573c-0,0 1.727,-0.565 6.248,-1.487c4.522,-0.922 4.216,-0.676 10.248,-1.929c6.032,-1.253 5.699,-1.126 8.276,-1.502c2.577,-0.375 3.111,-0.898 3.712,0.64c0.601,1.539 5.371,12.493 6.641,16.869c1.269,4.376 4.029,11.166 5.205,15.655c1.177,4.489 3.023,10.826 3.412,12.546c0.388,1.721 0.245,2.581 0.245,2.581l-34.351,14.537l-0.856,-0.06l-1.691,-10.435l-2.591,-12.842l-2.487,-9.966l-5.508,-20.574Z" style="fill:#2b2b2b;"/><path d="M524.833,319.601c-0,0 13.631,-19.668 17.098,-24.138c3.467,-4.471 2.104,-3.474 5.39,-6.691c3.286,-3.216 4.215,-5.273 7.908,-4.975c3.692,0.297 6.932,0.905 10.406,1.629c3.474,0.724 12.012,2.38 19.461,4.27c7.45,1.89 11.727,2.601 22.038,5.101c10.31,2.5 14.414,3.547 21.602,5.365c7.188,1.818 13.309,3.265 18.974,4.848c5.665,1.584 10.388,3.691 10.699,5.613c0.311,1.921 -15.404,40.512 -15.404,40.512l-0.917,0.891c0,0 -25.138,2.764 -33.262,1.903c-8.124,-0.86 -26.268,-4.54 -41.518,-9.135c-15.251,-4.595 -18.326,-4.708 -26.845,-9.71c-8.519,-5.002 -13.917,-8.797 -15.184,-11.655c-1.267,-2.857 -0.446,-3.828 -0.446,-3.828Z" style="fill:#2b2b2b;stroke:#000;stroke-width:1px;"/><path d="M694.326,297.372c0.649,-0.194 7.971,-3.235 7.971,-3.235l8.346,-3.419l7.867,-3.129l6.084,-2.402l3.917,-1.459l2.847,-1.094l1.325,-0.005l0.523,1.212l0.523,4.043c-0,-0 2.782,17.328 3.021,24.576c0.24,7.247 1.31,18.976 1.31,18.976l-15.322,4.775l-20.905,6.038l-14.283,3.903l-5.005,1.503l-1.873,0.392l-1.898,-0.245l-1.517,-1.121l-1.035,-1.281l-0.549,-1.516l-0.266,-1.931l-0.036,-2.402l0.423,-2.012l1.124,-3.275l1.052,-3.131l1.088,-3.164l7.559,-22.773l1.086,-2.355l0.99,-1.584l1.221,-1.263l1.036,-0.851l1.285,-0.877c0,-0 1.441,-0.7 2.091,-0.894Z" style="fill:#2b2b2b;"/><path d="M446.789,142.179c0.012,0.008 -0.154,-0.188 -0.59,-1.138c-0.268,-0.581 -0.281,-1.141 -0.163,-1.252c0.212,-0.199 0.506,-0.238 1.178,-0.275c1.162,-0.065 1.964,-0.072 3.05,-0.118c1.29,-0.054 4.669,-0.09 6.79,-0.048c2.047,0.041 3.387,0.305 4.398,1.199c1.011,0.893 11.682,12.272 14.574,16.831c2.892,4.559 6.343,8.642 7.041,10.57c0.698,1.929 1.849,4.725 1.18,6.001c-0.67,1.276 -0.956,1.993 -2.453,2.899c-1.497,0.905 -4.814,2.659 -7.313,3.77c-2.498,1.111 -3.569,1.698 -6.368,2.822c-2.8,1.123 -4.251,1.84 -4.251,1.84l-1.004,0.182l-0.816,-3.665l-1.744,-6.283l-3.357,-8.387l-2.973,-8.269c0,0 -3.864,-9.162 -3.78,-9.294c0.084,-0.131 -3.399,-7.385 -3.399,-7.385Z" style="fill:#2b2b2b;"/><path d="M735.469,282.57l-0.044,-0.953l0.862,-0.614l1.737,-0.687l2.433,-0.954l2.777,-1.005l3.609,-1.4l3.606,-1.301l15.512,-5.093l15.22,-4.393l5.912,-1.743l0.954,-0.111l0.633,0.063l0.512,0.824l0.692,1.431l0.8,2.106l6.205,16.819l4.529,16.043l2.322,10.489l-0.376,1.175l-4.642,1.08l-14.587,4.313l-21.795,6.337l-21.517,5.636l-0.503,-0.15l-0.266,-3.377l-0.361,-7.641l-0.508,-7.833l-0.722,-7.69l-0.699,-7.569l-0.585,-6.104c-0,0 -0.926,-3.902 -0.901,-4.126c0.025,-0.224 -0.809,-3.572 -0.809,-3.572Z" style="fill:#2b2b2b;"/></g><g id="WINDSHIELD"><path d="M318.684,222.983l2.784,-0.628l2.252,-0.451l2.111,-0.665l2.137,-1.922l2.275,-4.299l2.536,-5.86l3.555,-8.357l3.181,-7.447l3.081,-6.934l3.665,-8.127l4.413,-9.799l2.798,-6.154l1.545,-2.9l0.6,-1.009l0.131,-0.572l-0.573,-0.436c-0,-0 -51.861,-3.333 -73.467,-4.207c-21.606,-0.874 -40.063,-1.33 -54.434,-0.8c-14.371,0.531 -18.628,-1.275 -23.33,2.524c-6.447,5.208 -26.353,23.38 -37.339,34.53c-7.856,7.974 -9.306,9.701 -14.112,14.851c-4.072,4.363 -6.833,6.647 -6.833,6.647l-0.631,0.838l3.368,0.28l6.854,1.752c0,-0 19.313,3.835 37.415,5.412c18.103,1.577 15.041,1.936 37.514,2.867c22.473,0.932 18.188,1.92 40.632,1.854c22.443,-0.067 47.872,-0.988 47.872,-0.988Z"/></g><g id="BROW"><g><path d="M186.856,169.753c-1.568,1.414 159.405,8.54 159.405,8.54l4.413,-9.799l2.798,-6.154l1.545,-2.9l0.6,-1.009l0.131,-0.572l-0.573,-0.436c-0,-0 -51.861,-3.333 -73.467,-4.207c-21.606,-0.874 -40.299,-1.429 -54.675,-1.05c-15.388,0.407 -20.182,0.409 -23.089,2.774c-6.43,5.229 -11.983,10.212 -17.088,14.813Z"/></g></g></svg>