<?xml version="1.0" encoding="UTF-8" standalone="no"?><!DOCTYPE svg PUBLIC "-//W3C//DTD SVG 1.1//EN" "http://www.w3.org/Graphics/SVG/1.1/DTD/svg11.dtd"><svg width="100%" height="100%" viewBox="0 0 976 758" version="1.1" xmlns="http://www.w3.org/2000/svg" xmlns:xlink="http://www.w3.org/1999/xlink" xml:space="preserve" xmlns:serif="http://www.serif.com/" style="fill-rule:evenodd;clip-rule:evenodd;stroke-linejoin:round;stroke-miterlimit:2;"><rect id="Artboard1" x="0" y="0" width="975.859" height="757.973" style="fill:none;"/><g id="g1"><g id="Inside-glass-back-view" serif:id="Inside glass back view"><path id="path126" d="M232.867,163.419c-1.614,-2.296 -1.874,-2.58 -2.372,-2.586c-0.308,-0.004 -0.696,-0.13 -0.862,-0.279c-0.235,-0.211 -2.677,-0.405 -10.936,-0.867c-5.848,-0.327 -11.078,-0.658 -11.622,-0.734l-0.989,-0.139l0.653,-2.151c0.359,-1.183 1.24,-3.812 1.959,-5.843l1.305,-3.693l4.683,-3.396l4.842,-3.675l11.735,-0.005c9.262,-0.004 13.297,-0.068 13.297,0.121c-0,0.132 0.092,1.361 0.205,2.73l0.045,2.77l-2.303,9.841c-1.267,5.413 -2.256,10.207 -2.29,10.241c-0.069,0.069 -4.709,0.428 -5.174,0.428c-0.168,0 -1.163,-1.321 -2.176,-2.763l-0,0Z" style="fill:#e4e4e4;fill-rule:nonzero;"/><path id="path127" d="M187.035,169.048c0,-0.318 1.057,-1.688 3.623,-4.696c3.788,-4.441 11.53,-12.853 11.701,-12.686c0.037,0.037 -0.786,1.915 -1.08,2.964c-0.294,1.048 -1.125,4.431 -1.784,7.591c-0.659,3.16 -1.133,6.089 -1.192,6.276c-0.089,0.283 -0.962,0.235 -3.621,0.353c-1.758,0.078 -4.198,0.202 -5.422,0.276c-1.426,0.086 -2.225,0.058 -2.225,-0.078l0,0Z" style="fill:#e4e4e4;fill-rule:nonzero;"/><path id="path128" d="M263.154,162.211c0.275,-3.094 3.2,-21.42 3.46,-21.68c0.268,-0.268 19.649,0.923 19.954,1.227c0.037,0.038 -0.395,0.387 -0.96,0.776c-1.237,0.852 -2.908,1.81 -4.258,1.81l-0.991,-0l-2.469,2.329l-1.914,2.43l-1.757,6.852l-1.769,7.238l-2.766,0.124c-2.44,0.11 -5.132,0.554 -6.381,0.934c-0.344,0.104 -0.275,-0.618 -0.149,-2.04Z" style="fill:#e4e4e4;fill-rule:nonzero;"/><path id="path129" d="M317.401,155.142c-0.546,-0.694 -6.794,-12.991 -6.794,-13.366c-0,-0.166 4.658,-0.127 10.911,0.091c3.103,0.108 6.665,0.218 6.685,0.241c0.02,0.022 -0.096,1.894 -0.259,4.16l-0.295,4.119l-1.448,2.495l-1.435,2.251l-3.206,-0c-2.337,-0 -3.272,0.147 -3.409,-0.027l-0.75,0.036Z" style="fill:#e4e4e4;fill-rule:nonzero;"/></g><g id="Inside-glass-back-view1" serif:id="Inside glass back view"><path id="path1261" serif:id="path126" d="M232.867,163.419c-1.614,-2.296 -1.874,-2.58 -2.372,-2.586c-0.308,-0.004 -0.696,-0.13 -0.862,-0.279c-0.235,-0.211 -2.677,-0.405 -10.936,-0.867c-5.848,-0.327 -11.078,-0.658 -11.622,-0.734l-0.989,-0.139l0.653,-2.151c0.359,-1.183 1.24,-3.812 1.959,-5.843l1.305,-3.693l4.683,-3.396l4.842,-3.675l11.735,-0.005c9.262,-0.004 13.297,-0.068 13.297,0.121c-0,0.132 0.092,1.361 0.205,2.73l0.045,2.77l-2.303,9.841c-1.267,5.413 -2.256,10.207 -2.29,10.241c-0.069,0.069 -4.709,0.428 -5.174,0.428c-0.168,0 -1.163,-1.321 -2.176,-2.763l-0,0Z" style="fill:#848484;fill-rule:nonzero;"/><path id="path1271" serif:id="path127" d="M187.035,169.048c0,-0.318 1.057,-1.688 3.623,-4.696c3.788,-4.441 11.53,-12.853 11.701,-12.686c0.037,0.037 -0.786,1.915 -1.08,2.964c-0.294,1.048 -1.125,4.431 -1.784,7.591c-0.659,3.16 -1.133,6.089 -1.192,6.276c-0.089,0.283 -0.962,0.235 -3.621,0.353c-1.758,0.078 -4.198,0.202 -5.422,0.276c-1.426,0.086 -2.225,0.058 -2.225,-0.078l0,0Z" style="fill:#848484;fill-rule:nonzero;"/><path id="path1281" serif:id="path128" d="M263.154,162.211c0.275,-3.094 3.2,-21.42 3.46,-21.68c0.268,-0.268 19.649,0.923 19.954,1.227c0.037,0.038 -0.395,0.387 -0.96,0.776c-1.237,0.852 -2.908,1.81 -4.258,1.81l-0.991,-0l-2.469,2.329l-1.914,2.43l-1.757,6.852l-1.769,7.238l-2.766,0.124c-2.44,0.11 -5.132,0.554 -6.381,0.934c-0.344,0.104 -0.275,-0.618 -0.149,-2.04Z" style="fill:#848484;fill-rule:nonzero;"/><path id="path1291" serif:id="path129" d="M317.401,155.142c-0.546,-0.694 -6.794,-12.991 -6.794,-13.366c-0,-0.166 4.658,-0.127 10.911,0.091c3.103,0.108 6.665,0.218 6.685,0.241c0.02,0.022 -0.096,1.894 -0.259,4.16l-0.295,4.119l-1.448,2.495l-1.435,2.251l-3.206,-0c-2.337,-0 -3.272,0.147 -3.409,-0.027l-0.75,0.036Z" style="fill:#848484;fill-rule:nonzero;"/></g><g><path id="path135" d="M403.693,155.776c-1.541,-0.335 -2.774,-0.668 -7.855,-2.514l-2.65,-0.906l-6.549,-0.181c-6.011,-0.005 -6.573,0.187 -7.939,-0.309c-0.797,-0.29 -1.701,-0.824 -1.701,-0.986c-0,-0.163 -0.486,-1.095 -0.939,-1.603c-1.276,-1.432 -1.09,-1.777 0.344,-4.664l1.332,-2.416l4.588,-3.107c2.408,-1.709 4.651,-3.162 4.984,-3.229c0.334,-0.068 2.275,-0.344 4.315,-0.615l3.798,-0.529l1.788,1.899c3.745,3.98 9.267,13.423 10.262,17.641c0.152,0.646 0.332,1.36 0.398,1.586c0.105,0.357 -0.041,0.409 -1.111,0.392c-0.678,-0.011 -2.181,-0.267 -3.065,-0.459l-0,-0Z" style="fill:#e4e4e4;fill-rule:nonzero;"/><path id="path136" d="M441.233,155.675c-4.462,-0.234 -8.687,-0.458 -9.389,-0.497l-1.275,-0.072l-1.573,-3.054c-4.408,-8.557 -8.552,-16.834 -8.469,-16.917c0.051,-0.052 3.739,0.377 8.197,0.954c6.512,0.841 8.287,1.146 9.032,1.552c4.876,2.657 13.761,14.101 13.788,17.759c0.007,0.911 1.178,0.879 -10.311,0.275l0,0Z" style="fill:#e4e4e4;fill-rule:nonzero;"/></g><path id="BG" d="M277.104,185.3c-30.08,-1.282 -135.457,-7.02 -136.948,-7.457c-0.46,-0.135 19.686,-16.376 28.973,-23.357c6.077,-4.569 15.147,-10.939 25.107,-17.635l7.281,-4.894l50.781,1.665c56.324,1.846 69.693,2.383 79.013,3.171c6.148,0.52 9.713,1.421 9.713,2.454c-0,0.277 -1.356,2.523 -3.014,4.991c-1.657,2.468 -6.722,10.561 -11.256,17.984c-9.543,15.628 -13.287,21.027 -15.552,22.427c-1.524,0.942 -2.492,0.996 -16.077,0.902c-7.95,-0.055 -16.06,-0.168 -18.021,-0.251Z" style="fill:#2b2b2b;fill-rule:nonzero;"/><path id="RQ" d="M369.366,186.243c-0.941,-0.941 -3.036,-4.478 -4.655,-7.859l-2.945,-6.148l0.768,-4.427c1.33,-7.662 5.78,-19.093 7.669,-19.697c0.701,-0.224 9.534,20.253 14.405,33.394l1.166,3.146l-1.224,0.788c-1.806,1.163 -7.562,2.513 -10.717,2.513c-2.356,0 -3.006,-0.249 -4.467,-1.71Z" style="fill:#2b2b2b;fill-rule:nonzero;"/><path id="RR" d="M382.113,168.137c-3.385,-8.703 -6.334,-16.719 -6.554,-17.814c-0.22,-1.094 -0.9,-2.521 -1.511,-3.172c-1.471,-1.566 -1.402,-3.143 0.287,-6.48c1.278,-2.526 1.985,-3.138 8.239,-7.134c7.309,-4.67 9.975,-5.648 17.324,-6.355l3.681,-0.354l3.989,5.942c9.531,14.196 20.297,36.505 20.297,42.057c-0,0.709 -0.383,1.329 -0.916,1.485c-1.574,0.461 -37.293,7.65 -38.006,7.65c-0.402,-0 -3.167,-6.405 -6.83,-15.825Z" style="fill:#2b2b2b;fill-rule:nonzero;"/><path id="FR" d="M437.715,173.789c-0.421,-0.823 -2.148,-4.744 -3.836,-8.712c-3.729,-8.763 -10.238,-21.889 -15.503,-31.265c-2.146,-3.821 -4.06,-7.489 -4.254,-8.15c-0.345,-1.175 -0.256,-1.203 3.825,-1.201c3.209,0.001 5.868,0.474 11.466,2.042c11.415,3.197 14.154,4.99 28.431,18.614c10.042,9.583 12.146,11.863 13.814,14.965l1.966,3.659l-1.859,2.025c-1.855,2.019 -1.895,2.033 -16.664,5.497c-8.143,1.91 -15.213,3.596 -15.712,3.748c-0.614,0.186 -1.156,-0.21 -1.674,-1.222Z" style="fill:#2b2b2b;fill-rule:nonzero;"/></g><g><g id="inside-glass-front-view" serif:id="inside glass front view"><path id="path130" d="M530.555,417.756c0,-0.716 0.686,-1.532 3.664,-4.361c10.907,-10.363 38.437,-32.401 52.514,-41.909l3.59,-2.536l3.731,0.002c3.021,0.002 4.597,0.465 5.263,0.909l0.822,0.547l-2.472,4.54c-1.269,2.103 -4.303,7.686 -6.741,12.406c-6.032,11.675 -8.077,15.259 -9.556,16.743c-1.161,1.166 -1.579,1.342 -5.496,2.33c-7.901,1.991 -16.46,4.437 -24.498,7.001c-11.086,3.536 -15.895,4.93 -17.824,5.164c-1.645,0.201 -2.997,0.043 -2.997,-0.836l0,0Z" style="fill:#e4e4e4;fill-rule:nonzero;"/><path id="path131" d="M609.761,394.585c1.592,-4.356 8.385,-22.455 8.461,-22.569c0.094,-0.141 27.059,2.393 28.753,2.694l1.256,0.223l-1.74,0.552c-2.501,0.794 -8.056,2.221 -14.71,3.174c-5.792,0.83 -5.814,0.836 -6.969,1.954c-1.288,1.247 -3.222,5.354 -5.773,12.261l-1.537,4.161l-4.781,-0.016l-3.85,-0l0.89,-2.434Z" style="fill:#e4e4e4;fill-rule:nonzero;"/><path id="path132" d="M743.54,380.696c-0.806,-0.136 -2.259,-0.478 -3.228,-0.76l-1.761,-0.512l1.657,-2.39c0.912,-1.315 2.677,-3.479 3.923,-4.809l2.264,-2.419l1.359,0.206c1.807,0.275 1.986,0.411 3.389,2.582c1.253,1.938 2.335,4.79 2.69,7.088l0.205,1.335l-4.515,-0.037c-2.484,-0.02 -5.176,-0.148 -5.983,-0.284l0,-0Z" style="fill:#e4e4e4;fill-rule:nonzero;"/><path id="path133" d="M789.606,381.917c-4.664,-0.148 -9.801,-0.447 -11.415,-0.664l-2.935,-0.393l-2.674,-6.517c-1.47,-3.584 -2.597,-6.715 -2.504,-6.957c0.12,-0.312 1.053,-0.507 3.203,-0.668c4.306,-0.323 20.898,-0.034 21.628,0.376c0.325,0.183 2.002,3.284 3.726,6.892c2.945,6.163 3.108,6.608 2.696,7.345c-0.535,0.959 -0.337,0.949 -11.725,0.586Z" style="fill:#e4e4e4;fill-rule:nonzero;"/></g><g id="inside-glass-front-view1" serif:id="inside glass front view"><path id="path1301" serif:id="path130" d="M530.555,417.756c0,-0.716 0.686,-1.532 3.664,-4.361c10.907,-10.363 38.437,-32.401 52.514,-41.909l3.59,-2.536l3.731,0.002c3.021,0.002 4.597,0.465 5.263,0.909l0.822,0.547l-2.472,4.54c-1.269,2.103 -4.303,7.686 -6.741,12.406c-6.032,11.675 -8.077,15.259 -9.556,16.743c-1.161,1.166 -1.579,1.342 -5.496,2.33c-7.901,1.991 -16.46,4.437 -24.498,7.001c-11.086,3.536 -15.895,4.93 -17.824,5.164c-1.645,0.201 -2.997,0.043 -2.997,-0.836l0,0Z" style="fill:#848484;fill-rule:nonzero;"/><path id="path1311" serif:id="path131" d="M609.761,394.585c1.592,-4.356 8.385,-22.455 8.461,-22.569c0.094,-0.141 27.059,2.393 28.753,2.694l1.256,0.223l-1.74,0.552c-2.501,0.794 -8.056,2.221 -14.71,3.174c-5.792,0.83 -5.814,0.836 -6.969,1.954c-1.288,1.247 -3.222,5.354 -5.773,12.261l-1.537,4.161l-4.781,-0.016l-3.85,-0l0.89,-2.434Z" style="fill:#848484;fill-rule:nonzero;"/><path id="path1321" serif:id="path132" d="M743.54,380.696c-0.806,-0.136 -2.259,-0.478 -3.228,-0.76l-1.761,-0.512l1.657,-2.39c0.912,-1.315 2.677,-3.479 3.923,-4.809l2.264,-2.419l1.359,0.206c1.807,0.275 1.986,0.411 3.389,2.582c1.253,1.938 2.335,4.79 2.69,7.088l0.205,1.335l-4.515,-0.037c-2.484,-0.02 -5.176,-0.148 -5.983,-0.284l0,-0Z" style="fill:#848484;fill-rule:nonzero;"/><path id="path1331" serif:id="path133" d="M789.606,381.917c-4.664,-0.148 -9.801,-0.447 -11.415,-0.664l-2.935,-0.393l-2.674,-6.517c-1.47,-3.584 -2.597,-6.715 -2.504,-6.957c0.12,-0.312 1.053,-0.507 3.203,-0.668c4.306,-0.323 20.898,-0.034 21.628,0.376c0.325,0.183 2.002,3.284 3.726,6.892c2.945,6.163 3.108,6.608 2.696,7.345c-0.535,0.959 -0.337,0.949 -11.725,0.586Z" style="fill:#848484;fill-rule:nonzero;"/></g><path id="FL" d="M714.728,431.432c-0.021,-1.414 8.682,-27.895 13.333,-39.555c4.102,-10.282 11.199,-21.226 15.687,-24.189c3.718,-2.455 11.458,-5.831 12.48,-5.439c1.754,0.674 10.553,22.786 16.446,40.632c2.061,6.242 3.149,11.763 3.149,12.18c-0,1.135 -4.059,4.126 -5.599,4.126c-0.74,-0 -4.883,-1.198 -9.206,-2.662c-10.723,-3.63 -19.571,-4.918 -27.055,-3.939c-4.914,0.643 -5.605,1.328 -9.836,4.519c-2.726,2.056 -3.582,3.236 -5.049,7.077c-1.535,4.021 -4.335,8.234 -4.35,7.25Z" style="fill:#2b2b2b;fill-rule:nonzero;"/><path id="RL" d="M783.49,412.079c-0.147,-0.534 -0.431,-1.938 -0.632,-3.121c-0.827,-4.871 -9.876,-31.087 -14.563,-42.187c-1.37,-3.245 -2.491,-5.992 -2.491,-6.104c0,-0.525 3.404,-1.39 7.928,-2.016c4.109,-0.569 5.991,-0.558 10.839,0.06l5.866,0.748l3.523,2.759c2.241,2.189 3.533,4.455 5.848,9.404c5.104,10.913 10.931,27.095 10.931,30.038c0,1.247 -0.39,1.593 -2.842,2.517c-25.375,9.567 -24.065,9.143 -24.407,7.902l0,-0Z" style="fill:#2b2b2b;fill-rule:nonzero;"/><path id="RQ1" serif:id="RQ" d="M813.533,399.908c-0.627,-1.205 -8.723,-25.736 -9.264,-28.097l-0.378,-1.652l2.234,1.769c5.138,4.069 14.022,14.189 16.587,19.211c1.859,3.639 2.33,4.431 -1.872,6.602c-4.119,2.128 -6.55,3.62 -7.307,2.167Z" style="fill:#2b2b2b;fill-rule:nonzero;"/></g></svg>