<?xml version="1.0" encoding="UTF-8" standalone="no"?><!DOCTYPE svg PUBLIC "-//W3C//DTD SVG 1.1//EN" "http://www.w3.org/Graphics/SVG/1.1/DTD/svg11.dtd"><svg width="100%" height="100%" viewBox="0 0 1024 579" version="1.1" xmlns="http://www.w3.org/2000/svg" xmlns:xlink="http://www.w3.org/1999/xlink" xml:space="preserve" xmlns:serif="http://www.serif.com/" style="fill-rule:evenodd;clip-rule:evenodd;stroke-linejoin:round;stroke-miterlimit:2;"><g id="REAR"><path id="back-glass" serif:id="back glass" d="M670.618,246.916l0.828,-5.592l1.326,-7.911l1.583,-8.316l1.159,-6.794l1.723,-6.188l1.301,-3.777l1.93,-2.394l3.279,-1.913l4.865,-2.213l9.881,-4.266l13.271,-5.922l13.117,-6.013l13.826,-5.427l11.175,-4.092l12.89,-4.68l8.995,-3.256l7.778,-2.301l3.298,-0.06l2.172,1.765l1.845,3.968l1.741,7.555l1.657,5.824l1.383,5.565l1.02,4.219l-0.87,3.031l-3.174,2.12l-8.822,4.234l-104.243,46.336l-3.529,1.847l-1.756,-0.994l0.351,-4.355Z" style="fill:#69bac9;"/></g><g id="SIDES"><path id="front-left-door" serif:id="front left door" d="M599.826,214.653l0.921,-4.001l1.209,-5.576l1.276,-5.756l1.383,-3.562l3.205,-2.552l4.16,-3.049l4.365,-2.751l3.852,-2.451l5.243,-2.369l3.24,-1.291l2.677,0.362l3.957,1.45l3.232,1.848l4.291,2.078l3.289,1.84l4.058,2.221l3.216,2.319l1.98,2.12l-0,2.734l-1.833,5.243l-2.193,5.966l-1.633,5.276l-1.575,5.792l-1.433,5.35l-1.765,5.906l-1.225,5.229l-1.772,6.212l-42.125,-28.588Z" style="fill:#69bac9;"/><path id="front-right-door" serif:id="front right door" d="M212.837,170.344l-1.616,-1.529l-1.749,-0.758l-1.255,2.393l-1.889,5.152l-1.282,6.014l-2.186,8.089l-2.367,10.762l-1.169,6.34l-1.515,8.201l4.346,3.676l4.526,3.823l6.447,4.127l7.564,4.792l6.07,4.187l5.514,4.38l3.444,0.393l3.217,-0.333l3.236,0.021l2.56,1.022l3.337,3.252l2.445,2.685l1.051,-14.516l-1.656,-5.703l-2.471,-8.475l-2.7,-8.521l-2.903,-7.684l-2.54,-6.24l-3.629,-6.023l-4.34,-4.566l-5.304,-4.453l-7.61,-6.015l-5.576,-4.493Z" style="fill:#69bac9;"/></g><g id="WINDSHIELD"><path id="windshield" d="M253.383,194.103l3.36,-1.424l5.381,-1.86l7.651,-3.432l9.444,-4.077l14.107,-5.69l13.502,-5.91l12.934,-6.272l9.486,-4.957l9.634,-5.571l7.112,-4.517l6.483,-4.091l2.551,-1.718l3.109,0.751l1.978,2.827l3.886,4.549l4.426,5.63l4.003,5.613l5.72,8.828l4.897,7.037l4.165,7.23l2.537,5.19l-0.573,2.538l-3.477,3.606l-5.892,4.59l-7.084,5.512l-9.895,5.983l-12.347,7.348l-14.122,7.271l-18.384,8.357l-19.781,8.228l-16.085,5.218l-7.242,2.14l-3.388,0.164l-5.618,-18.064l-4.37,-13.813l-5.041,-14.724l-3.067,-12.49Z" style="fill:#69bac9;"/></g><g id="BROW"><path id="brow" d="M253.383,194.103l3.36,-1.424l5.381,-1.86l7.651,-3.432l9.444,-4.077l14.107,-5.69l13.502,-5.91l12.934,-6.272l9.486,-4.957l9.634,-5.571l7.112,-4.517l6.483,-4.091l2.551,-1.718l3.109,0.751l4.014,3.816l3.345,3.896l6.516,8.064l-111.299,56.524l-3.496,-11.999l-3.834,-11.533Z"/></g></svg>