<?xml version="1.0" encoding="UTF-8" standalone="no"?><!DOCTYPE svg PUBLIC "-//W3C//DTD SVG 1.1//EN" "http://www.w3.org/Graphics/SVG/1.1/DTD/svg11.dtd"><svg width="100%" height="100%" viewBox="0 0 1024 579" version="1.1" xmlns="http://www.w3.org/2000/svg" xmlns:xlink="http://www.w3.org/1999/xlink" xml:space="preserve" xmlns:serif="http://www.serif.com/" style="fill-rule:evenodd;clip-rule:evenodd;stroke-linecap:round;stroke-linejoin:round;stroke-miterlimit:1.5;"><g id="FACTORYTINT-NO-STROKE"><g><path id="inside-rear-door" serif:id="inside rear door" d="M272.047,127.695l1.843,-0.04l10.164,0.018l0.561,0.786l-0.73,0.719l-1.217,1.16l-0.813,1.405l-1.026,1.315l-0.944,2.372l-0.58,2.254l-0.872,2.459l-0.505,3.284l-0.027,2.226l0.216,1.891l1.3,1.678l1.202,1.069l1.063,0.181l0.461,0.727l-0.311,0.734l-0.976,0.171l-1.428,-0.025l-1.802,0.2l-1.946,0.204l-1.753,0.494l-1.975,0.648l-1.794,0.583l-1.465,0.482l-1.725,0.077l5.079,-27.072Z" style="fill-opacity:0.15;"/><path d="M272.63,120.376l1.107,-0.607l1.186,-0.215l1.924,-0.48l1.658,-0.618l1.926,-0.718l1.355,-0.788l1.861,-0.95l1.352,-0.847l1.075,-1.056l0.987,-0.753l1.511,-0.134l1.721,0.123l1.843,-0.024l1.921,0.029l2.054,-0.011l2.375,0.192l2.806,0.036l2.871,0.303l2.754,0.204l2.429,0.058l2.043,-0.111l2.438,-0.005l1.757,0.297l0.571,1.132l-0.845,2.09l-0.537,2.013l-0.817,2.474l-0.589,2.609l-0.911,2.917l-0.852,2.684l-0.706,2.317l-0.578,1.944l-1.156,0.525l-0.344,-0.981l-0.53,-1.71l-0.48,-1.628l-1.504,-1.599l-1.313,-0.788l-1.723,-0.642l-1.813,-0.315l-1.973,0.036l-2.445,0.204l-2.474,0.023l-1.827,0.211l-1.167,-0.059l0.508,-0.818l0.607,-0.933l0.343,-1.359l0.059,-1.53l-0.426,-1.289l-1.096,-1.108l-1.39,-0.649l-1.68,-0.303l-2.013,0.093l-3.876,0.069l-3.963,0.358l-3.316,0.574l-1.665,0.416l-1.032,-0.166l-0.001,-0.737Z" style="fill-opacity:0.15;"/><path id="inside-rear-glass" serif:id="inside rear glass" d="M334.467,146.072l1.266,-3.844l1.72,-4.472l1.564,-4.396l1.984,-5.408l1.534,-3.843l1.461,-2.903l1.038,-1.921l1.117,-1.101l1.177,-0.093l13.021,0.197l-9.101,18.564l-3.796,0.129l-3.08,0.765l-2.029,1.923l-1.487,2.441l-1.065,2.738l-1.405,1.527l-1.675,0.367l-1.563,0.127l-0.681,-0.797Z" style="fill-opacity:0.15;"/><path d="M377.463,127.621l4.572,-8.177l22.783,0.045l8.714,29.349l-9.236,-0.251l-3.976,-13.84c-0,0 -0.404,-1.512 -1.251,-3.299c-0.846,-1.787 -2.155,-3.662 -4.609,-3.793c-2.454,-0.131 -16.997,-0.034 -16.997,-0.034Z" style="fill-opacity:0.15;"/><path d="M434.084,137.738c-0,0 -2.488,-8.45 -3.699,-12.011c-1.211,-3.562 -2.498,-6.283 -2.498,-6.283l31.797,0l8.517,27.425l-12.806,0c0,0 1.344,-1.097 1.945,-2.7c0.601,-1.603 0.599,-3.792 -0.872,-4.921c-1.47,-1.129 -3.283,-1.871 -6.128,-1.719c-2.845,0.153 -16.256,0.209 -16.256,0.209Z" style="fill-opacity:0.15;"/><path d="M631.297,295.437l-6.036,-0.191c0,0 0.751,-5.69 2.648,-11.781c1.898,-6.091 3.228,-11.309 5.178,-15.02c1.95,-3.71 1.509,-5.701 5.458,-5.597c3.949,0.104 33.507,-0.106 33.507,-0.106c0,0 0.195,-0.327 2.372,-0.061c2.177,0.266 2.393,-0.216 1.214,3.589c-1.18,3.806 -5.342,19.119 -6.029,23.23c-0.687,4.111 -1,7.068 -1,7.068l-12.172,0l0.846,-3.289l-0.068,-3.779l-0.88,-3.954l-1.421,-3.194l-1.917,-2.372l-1.716,-1.165l-15.909,0.145l-2.048,1.637l-1.644,2.639l-1.24,3.527l-0.419,2.737l0.16,2.525l1.116,3.412Z" style="fill-opacity:0.15;"/></g></g><g id="FACTORYTINT"><g><path id="rear-right-door" serif:id="rear right door" d="M807.072,313.19l29.265,0.063c-0,-0 -4.842,-21.56 -8.314,-31.633c-3.473,-10.074 -6.647,-19.728 -7.6,-21.636c-0.953,-1.909 -0.257,-1.875 -2.729,-1.83c-2.471,0.046 -18.455,-0.212 -24.512,-0.031c-6.057,0.181 -9.554,0.317 -12.084,0.593c-2.53,0.275 -3.412,-0.354 -2.94,2.386c0.472,2.74 3.17,11.805 4.783,16.73c1.613,4.926 1.587,7.001 4.53,15.509c2.944,8.509 3.208,11.688 8.136,14.461c4.927,2.772 6.956,4.454 9.22,4.987c2.265,0.534 1.939,0.378 2.245,0.401Z"/><path id="rear-left-door" serif:id="rear left door" d="M439.533,165.323c0,0 -2.074,-13.172 -3.042,-17.322c-0.968,-4.151 -8.966,-28.902 -10.776,-31.955c-1.81,-3.053 -2.702,-4.78 -2.683,-5.136c0.019,-0.356 -0.216,-0.427 0.512,-0.481c0.727,-0.055 26.132,1.059 26.132,1.059c0,0 8.953,0.297 10.655,0.556c1.701,0.26 3.44,0.702 4.762,3.939c1.323,3.237 3.615,8.203 4.74,12.093c1.126,3.889 3.729,10.845 5.411,17.102c1.683,6.257 4.194,9.563 2.183,12.262c-2.011,2.698 -3.61,6.101 -9.534,6.73c-5.925,0.628 -28.214,1.933 -28.214,1.933l-0.146,-0.78Z"/><path id="rear-glass" serif:id="rear glass" d="M606.263,304.087c0,-0 -2.899,0.291 -2.585,-0.78c0.313,-1.071 1.478,-9.711 3.193,-14.519c1.715,-4.809 5.257,-15.05 6.839,-18.375c1.583,-3.324 3.021,-6.87 4.376,-8.314c1.355,-1.443 2.244,-2.527 3.637,-2.656c1.394,-0.129 8.975,-0.67 12.09,-0.66c3.114,0.01 24.479,-0.736 29.377,-0.788c4.897,-0.051 36.787,-0.184 41.889,-0.05c5.103,0.134 36.354,0.958 38.565,1.29c2.211,0.333 5.55,2.446 6.889,5.896c1.34,3.45 4.568,13.221 5.618,17.706c1.051,4.485 2.747,10.603 3.52,15.123c0.773,4.52 1.659,6.477 1.216,8.033c-0.443,1.555 0.395,1.405 -1.234,1.594c-1.629,0.188 -4.757,0.331 -9.806,0.188c-5.049,-0.143 -26.383,-0.232 -34.04,-0.618c-7.657,-0.386 -25.136,-0.612 -32.647,-0.776c-7.51,-0.163 -22.641,-0.307 -29.989,-0.588c-7.348,-0.282 -20.205,-0.537 -29.238,-0.855"/></g></g><g id="REAR"><g><path id="rear-glass1" serif:id="rear glass" d="M606.263,304.087c0,-0 -2.899,0.291 -2.585,-0.78c0.313,-1.071 1.478,-9.711 3.193,-14.519c1.715,-4.809 5.257,-15.05 6.839,-18.375c1.583,-3.324 3.021,-6.87 4.376,-8.314c1.355,-1.443 2.244,-2.527 3.637,-2.656c1.394,-0.129 8.975,-0.67 12.09,-0.66c3.114,0.01 24.479,-0.736 29.377,-0.788c4.897,-0.051 36.787,-0.184 41.889,-0.05c5.103,0.134 36.354,0.958 38.565,1.29c2.211,0.333 5.55,2.446 6.889,5.896c1.34,3.45 4.568,13.221 5.618,17.706c1.051,4.485 2.747,10.603 3.52,15.123c0.773,4.52 1.659,6.477 1.216,8.033c-0.443,1.555 0.395,1.405 -1.234,1.594c-1.629,0.188 -4.757,0.331 -9.806,0.188c-5.049,-0.143 -26.383,-0.232 -34.04,-0.618c-7.657,-0.386 -25.136,-0.612 -32.647,-0.776c-7.51,-0.163 -22.641,-0.307 -29.989,-0.588c-7.348,-0.282 -20.205,-0.537 -29.238,-0.855" style="fill:#69bac9;"/></g></g><g id="SIDES-NO-STROKE"><g><path id="inside-front-door" serif:id="inside front door" d="M204.998,137.928l12.417,-10.307l1.164,0.739l0.344,1.293l0.257,1.488l-0.483,1.508l-0.896,1.529l-1.213,1.498l-1.512,1.325l-1.856,1.184l-1.78,0.733l-2.196,0.466l-2.197,0.077l-1.354,-0.142l-0.695,-1.391Z" style="fill:#69bac9;"/><path id="inside-front-Right" serif:id="inside front Right" d="M188.782,154.488l10.378,-10.485l1.001,0.292l1.604,0.091l1.38,0.199l2.154,0.02l2.3,-0.105l2.928,-0.756l2.639,-1.094l3.128,-1.809l2.459,-1.943l1.631,-2.061l1.656,-1.994l1.155,-2.286l0.728,-2.036l0.126,-1.704l0.093,-2.034l-0.358,-1.638l-0.133,-1.06l0.615,-1.041l1.489,-1.107l1.747,-1.362l1.818,-1.348l1.904,-1.333l1.85,-1.181l1.516,-0.842l1.82,-0.877l1.604,-0.615l2.193,-0.374l2.566,-0.358l2.377,-0.062l4.851,-0.03l3.448,0.003l2.425,0.073l0.755,0.621l-0.058,1.101l-1.054,2.712l-1.46,3.537l-1.759,4.278l-1.841,5.107l-1.9,5.339l-2.087,6.498l-1.86,6.412l-0.623,2.561l-2.318,4.429l-53.411,0.058l0.524,-1.796Z" style="fill:#69bac9;"/><path id="inside-rear-door1" serif:id="inside rear door" d="M272.047,127.695l1.843,-0.04l10.164,0.018l0.561,0.786l-0.73,0.719l-1.217,1.16l-0.813,1.405l-1.026,1.315l-0.944,2.372l-0.58,2.254l-0.872,2.459l-0.505,3.284l-0.027,2.226l0.216,1.891l1.3,1.678l1.202,1.069l1.063,0.181l0.461,0.727l-0.311,0.734l-0.976,0.171l-1.428,-0.025l-1.802,0.2l-1.946,0.204l-1.753,0.494l-1.975,0.648l-1.794,0.583l-1.465,0.482l-1.725,0.077l5.079,-27.072Z" style="fill:#69bac9;"/><path d="M272.63,120.376l1.107,-0.607l1.186,-0.215l1.924,-0.48l1.658,-0.618l1.926,-0.718l1.355,-0.788l1.861,-0.95l1.352,-0.847l1.075,-1.056l0.987,-0.753l1.511,-0.134l1.721,0.123l1.843,-0.024l1.921,0.029l2.054,-0.011l2.375,0.192l2.806,0.036l2.871,0.303l2.754,0.204l2.429,0.058l2.043,-0.111l2.438,-0.005l1.757,0.297l0.571,1.132l-0.845,2.09l-0.537,2.013l-0.817,2.474l-0.589,2.609l-0.911,2.917l-0.852,2.684l-0.706,2.317l-0.578,1.944l-1.156,0.525l-0.344,-0.981l-0.53,-1.71l-0.48,-1.628l-1.504,-1.599l-1.313,-0.788l-1.723,-0.642l-1.813,-0.315l-1.973,0.036l-2.445,0.204l-2.474,0.023l-1.827,0.211l-1.167,-0.059l0.508,-0.818l0.607,-0.933l0.343,-1.359l0.059,-1.53l-0.426,-1.289l-1.096,-1.108l-1.39,-0.649l-1.68,-0.303l-2.013,0.093l-3.876,0.069l-3.963,0.358l-3.316,0.574l-1.665,0.416l-1.032,-0.166l-0.001,-0.737Z" style="fill:#69bac9;"/><path id="inside-rear-glass1" serif:id="inside rear glass" d="M334.467,146.072l1.266,-3.844l1.72,-4.472l1.564,-4.396l1.984,-5.408l1.534,-3.843l1.461,-2.903l1.038,-1.921l1.117,-1.101l1.177,-0.093l13.021,0.197l-9.101,18.564l-3.796,0.129l-3.08,0.765l-2.029,1.923l-1.487,2.441l-1.065,2.738l-1.405,1.527l-1.675,0.367l-1.563,0.127l-0.681,-0.797Z" style="fill:#69bac9;"/><path d="M377.463,127.621l4.572,-8.177l22.783,0.045l8.714,29.349l-9.236,-0.251l-3.976,-13.84c-0,0 -0.404,-1.512 -1.251,-3.299c-0.846,-1.787 -2.155,-3.662 -4.609,-3.793c-2.454,-0.131 -16.997,-0.034 -16.997,-0.034Z" style="fill:#6ab9c9;"/><path d="M434.084,137.738c-0,0 -2.488,-8.45 -3.699,-12.011c-1.211,-3.562 -2.498,-6.283 -2.498,-6.283l31.797,0l8.517,27.425l-12.806,0c0,0 1.344,-1.097 1.945,-2.7c0.601,-1.603 0.599,-3.792 -0.872,-4.921c-1.47,-1.129 -3.283,-1.871 -6.128,-1.719c-2.845,0.153 -16.256,0.209 -16.256,0.209Z" style="fill:#6ab9c9;"/><path d="M631.297,295.437l-6.036,-0.191c0,0 0.751,-5.69 2.648,-11.781c1.898,-6.091 3.228,-11.309 5.178,-15.02c1.95,-3.71 1.509,-5.701 5.458,-5.597c3.949,0.104 33.507,-0.106 33.507,-0.106c0,0 0.195,-0.327 2.372,-0.061c2.177,0.266 2.393,-0.216 1.214,3.589c-1.18,3.806 -5.342,19.119 -6.029,23.23c-0.687,4.111 -1,7.068 -1,7.068l-12.172,0l0.846,-3.289l-0.068,-3.779l-0.88,-3.954l-1.421,-3.194l-1.917,-2.372l-1.716,-1.165l-15.909,0.145l-2.048,1.637l-1.644,2.639l-1.24,3.527l-0.419,2.737l0.16,2.525l1.116,3.412Z" style="fill:#6ab9c9;"/><path d="M700.325,296.568l-0.124,-3.305l0.124,-4.995l0.632,-4.427l0.979,-4.268l1.336,-2.758l2.148,-1.45l2.65,-0.703l3.048,-0.099l4.317,0.3l4.006,0.039l3.522,0.365l1.209,0.419l1.468,1.567l2.11,3.114l2.642,-0.14l-0.919,-1.812l-1.735,-2.804l-2.695,-3.176l-3.182,-2.553l-3.149,-2.028l-3.95,-1.716l-4.019,-1.288l-3.974,-0.909l-4.009,-0.273l-4.933,-0.231l-2.176,-0.151l-1.44,0.431l-0.89,1.946l-0.816,3.183l-1.092,3.962l-0.863,3.764l-0.429,3.001l-0.402,4.098l-0.413,3.689l-0.235,2.14l0.447,0.686l4.511,-0.066l1.129,0.447l2.356,2.515l2.811,3.486Z" style="fill:#6ab9c9;"/></g></g><g id="FACTORYMATCH-NO-STROKE"><g><path id="inside-front-door1" serif:id="inside front door" d="M204.998,137.928l12.417,-10.307l1.164,0.739l0.344,1.293l0.257,1.488l-0.483,1.508l-0.896,1.529l-1.213,1.498l-1.512,1.325l-1.856,1.184l-1.78,0.733l-2.196,0.466l-2.197,0.077l-1.354,-0.142l-0.695,-1.391Z" style="fill:#69bac9;"/><path id="inside-front-Right1" serif:id="inside front Right" d="M188.782,154.488l10.378,-10.485l1.001,0.292l1.604,0.091l1.38,0.199l2.154,0.02l2.3,-0.105l2.928,-0.756l2.639,-1.094l3.128,-1.809l2.459,-1.943l1.631,-2.061l1.656,-1.994l1.155,-2.286l0.728,-2.036l0.126,-1.704l0.093,-2.034l-0.358,-1.638l-0.133,-1.06l0.615,-1.041l1.489,-1.107l1.747,-1.362l1.818,-1.348l1.904,-1.333l1.85,-1.181l1.516,-0.842l1.82,-0.877l1.604,-0.615l2.193,-0.374l2.566,-0.358l2.377,-0.062l4.851,-0.03l3.448,0.003l2.425,0.073l0.755,0.621l-0.058,1.101l-1.054,2.712l-1.46,3.537l-1.759,4.278l-1.841,5.107l-1.9,5.339l-2.087,6.498l-1.86,6.412l-0.623,2.561l-2.318,4.429l-53.411,0.058l0.524,-1.796Z" style="fill:#69bac9;"/></g></g><g id="SIDES"><g><path id="rear-right-door1" serif:id="rear right door" d="M807.072,313.19l29.265,0.063c-0,-0 -4.842,-21.56 -8.314,-31.633c-3.473,-10.074 -6.647,-19.728 -7.6,-21.636c-0.953,-1.909 -0.257,-1.875 -2.729,-1.83c-2.471,0.046 -18.455,-0.212 -24.512,-0.031c-6.057,0.181 -9.554,0.317 -12.084,0.593c-2.53,0.275 -3.412,-0.354 -2.94,2.386c0.472,2.74 3.17,11.805 4.783,16.73c1.613,4.926 1.587,7.001 4.53,15.509c2.944,8.509 3.208,11.688 8.136,14.461c4.927,2.772 6.956,4.454 9.22,4.987c2.265,0.534 1.939,0.378 2.245,0.401Z" style="fill:#69bac9;"/><path id="front-right-door" serif:id="front right door" d="M895.52,313.178l-42.754,-0.139c-0,0 -7.476,-25.874 -10.282,-32.815c-2.806,-6.941 -6.933,-16.436 -7.894,-18.394c-0.96,-1.958 -1.14,-1.977 0.971,-2.034c2.112,-0.056 11.241,-0.32 18.28,2.918c7.038,3.239 11.942,6.391 19.314,13.037c7.372,6.646 10.54,9.845 13.128,12.651c2.588,2.807 2.205,2.942 3.414,6.546c1.21,3.604 2.042,6.357 2.042,6.357l1.657,5.274" style="fill:#69bac9;fill-opacity:0.99;"/><path id="front-left-door" serif:id="front left door" d="M373.769,169.217c0,0 -1.789,-1.722 -1.932,-3.387c-0.143,-1.666 -0.937,-4.397 -1.148,-7.297c-0.21,-2.899 -0.411,-6.09 -1.513,-7.15c-1.102,-1.061 -1.113,-1.241 -0.875,-1.881c0.238,-0.64 7.458,-19.949 10.845,-25.843c3.182,-5.537 5.741,-10.289 10.65,-11.165c4.909,-0.876 16.697,-2.455 17.513,-2.2c0.817,0.255 0.919,-0.771 2.584,3.953c1.665,4.723 4.753,11.943 6.529,19.439c1.776,7.496 3.821,13.311 4.725,20.503c0.905,7.191 1.172,11.417 1.147,11.816c-0.026,0.399 -0.055,0.633 -0.723,0.603c-0.667,-0.031 -0.643,0.07 -0.806,-0.63c-0.164,-0.7 -0.365,-2.234 -0.73,-4.174c-0.365,-1.94 0.019,-2.583 -0.812,-5.293c-0.831,-2.711 -0.51,-3.006 -1.667,-4.288c-1.156,-1.281 -2.913,-2.669 -4.967,-2.975c-2.055,-0.306 -4.424,-0.484 -10.437,-0.611c-6.012,-0.127 -8.857,0.107 -14.283,0c-5.426,-0.107 -6.954,0.175 -8.844,1.853c-1.89,1.678 -3.213,2.695 -4.22,4.9c-0.522,1.145 -0.424,13.428 -0.296,13.795l-0.74,0.032Z" style="fill:#69bac9;"/><path id="rear-left-door1" serif:id="rear left door" d="M439.533,165.323c0,0 -2.074,-13.172 -3.042,-17.322c-0.968,-4.151 -8.966,-28.902 -10.776,-31.955c-1.81,-3.053 -2.702,-4.78 -2.683,-5.136c0.019,-0.356 -0.216,-0.427 0.512,-0.481c0.727,-0.055 26.132,1.059 26.132,1.059c0,0 8.953,0.297 10.655,0.556c1.701,0.26 3.44,0.702 4.762,3.939c1.323,3.237 3.615,8.203 4.74,12.093c1.126,3.889 3.729,10.845 5.411,17.102c1.683,6.257 4.194,9.563 2.183,12.262c-2.011,2.698 -3.61,6.101 -9.534,6.73c-5.925,0.628 -28.214,1.933 -28.214,1.933l-0.146,-0.78Z" style="fill:#69bac9;"/></g></g><g id="FACTORY-MATCH" serif:id="FACTORY MATCH"><g><path id="front-right-door1" serif:id="front right door" d="M895.52,313.178l-42.754,-0.139c-0,0 -7.476,-25.874 -10.282,-32.815c-2.806,-6.941 -6.933,-16.436 -7.894,-18.394c-0.96,-1.958 -1.14,-1.977 0.971,-2.034c2.112,-0.056 11.241,-0.32 18.28,2.918c7.038,3.239 11.942,6.391 19.314,13.037c7.372,6.646 10.54,9.845 13.128,12.651c2.588,2.807 2.205,2.942 3.414,6.546c1.21,3.604 2.042,6.357 2.042,6.357l1.657,5.274" style="fill:#69bac9;fill-opacity:0.99;"/><path id="front-left-door1" serif:id="front left door" d="M373.769,169.217c0,0 -1.789,-1.722 -1.932,-3.387c-0.143,-1.666 -0.937,-4.397 -1.148,-7.297c-0.21,-2.899 -0.411,-6.09 -1.513,-7.15c-1.102,-1.061 -1.113,-1.241 -0.875,-1.881c0.238,-0.64 7.458,-19.949 10.845,-25.843c3.182,-5.537 5.741,-10.289 10.65,-11.165c4.909,-0.876 16.697,-2.455 17.513,-2.2c0.817,0.255 0.919,-0.771 2.584,3.953c1.665,4.723 4.753,11.943 6.529,19.439c1.776,7.496 3.821,13.311 4.725,20.503c0.905,7.191 1.172,11.417 1.147,11.816c-0.026,0.399 -0.055,0.633 -0.723,0.603c-0.667,-0.031 -0.643,0.07 -0.806,-0.63c-0.164,-0.7 -0.365,-2.234 -0.73,-4.174c-0.365,-1.94 0.019,-2.583 -0.812,-5.293c-0.831,-2.711 -0.51,-3.006 -1.667,-4.288c-1.156,-1.281 -2.913,-2.669 -4.967,-2.975c-2.055,-0.306 -4.424,-0.484 -10.437,-0.611c-6.012,-0.127 -8.857,0.107 -14.283,0c-5.426,-0.107 -6.954,0.175 -8.844,1.853c-1.89,1.678 -3.213,2.695 -4.22,4.9c-0.522,1.145 -0.424,13.428 -0.296,13.795l-0.74,0.032Z" style="fill:#69bac9;"/></g></g><g id="WINDSHIELD-NO-STROKE"><g><path d="M733.196,265.13l14.491,0.128l1.068,2.724l2.089,7.361l2.536,10.113l2.025,8.467l0.365,2.645l-8.279,0l0.491,-2.505l-0.255,-3.033l-0.487,-3.402l-1.158,-2.804l-1.659,-2.009l-2.068,-1.186l-1.401,-0.238l-0.741,-2.929l-1.573,-3.696l-1.664,-2.948l-1.998,-3.655l-1.782,-3.033Z" style="fill:#6ab9c9;"/><path d="M783.834,279.249l-1.103,-4.256l-1.835,-5.602l-1.386,-4.261l-0.924,-2.553l10.27,-0l2.711,1.457l2.722,1.096l2.262,0.378l2.206,0.054l1.425,0.187l0.541,0.737l0,2.252l-6.751,0.034l-1.38,0.563l-0.34,1.094l-0.186,1.733l0.118,1.734l0.92,0.825l2.147,0.286l3.509,-0.019l8.71,0.131l2.811,-0.528l0.813,-0.763l0.638,-0.91l-0,-1.79l-0.327,-1.512l-1.803,-0.684l-2.126,-0.225l-1.519,-0.045l-0.474,-0.929l-0.067,-1.023l-0.215,-1.092l7.335,0.346c0,-0 2.044,2.43 3.326,5.815c1.282,3.386 3.671,9.933 4.729,14.068c1.058,4.136 3.284,12.84 3.284,12.84l-0,0.669l-10.434,-0l-1.243,-1.12l0.22,-3.11l-0.011,-2.626l-0.099,-3l-0.587,-3.502l-0.98,-3.181l-1.65,-3.617l-1.432,-2.324l-1.441,-1.154l-4.363,0.005l-5.603,-0.045l-3.844,0.222l-3.447,0.162l-2.445,0.896l-1.701,1.216l-0.981,1.071Z" style="fill:#6ab9c9;"/><path d="M835.252,262.577l2.583,5.531l2.513,5.96l3.162,7.898l2.109,6.2l2.289,7.074l1.32,4.628l36.808,0.641l-6.15,-8.208l-2.412,0.608l-2.84,0.143l-3.531,-0.622l-3.57,-1.87l-3.79,-3.097l-3.19,-3.109l-1.5,-1.885l-0.1,-2.542l0.133,-1.883l0.356,-2.168l0.805,-1.548l0.339,-0.502l-2.699,-2.28l-3.512,-2.166l-4.094,-2.337l-3.735,-1.485l-4.33,-1.487l-3.873,-0.785l-3.091,-0.709Z" style="fill:#6ab9c9;"/><path d="M864.614,277.428c0,-0 3.043,2.576 5.256,4.679c2.212,2.103 3.882,3.519 4.429,4.469c0.546,0.95 1.539,1.95 0.472,2.096c-1.066,0.145 -1.616,0.284 -3.032,-0.341c-1.416,-0.625 -7.207,-3.934 -7.554,-5.508c-0.347,-1.575 0.429,-5.395 0.429,-5.395Z" style="fill:#6ab9c9;"/></g></g><g id="WINDSHIELD"><path id="windshield" d="M170.001,158.427l-1.877,0.088l-1.446,-0.274c-0,-0 15.474,-14.434 29.514,-26.355c14.039,-11.922 21.115,-17.302 21.303,-17.287c0.189,0.016 3.22,-2.138 4.821,-3.252c1.6,-1.115 1.763,-1.419 4.328,-1.523c2.565,-0.104 52.145,-2.117 64.588,-2.02c12.444,0.097 43.264,0.883 43.264,0.883c12.468,0.257 30.294,1.755 30.294,1.755l-1.585,2.829c0,0 -1.668,4.029 -5.956,12.694c-4.288,8.665 -6.37,12.113 -10.609,21.341c-4.24,9.229 -4.665,10.587 -7.109,12.304c-2.444,1.716 -5.319,3.467 -10.759,3.7c-5.441,0.233 -30.072,-1.369 -39.009,-2.019c-8.937,-0.649 -33.324,-2.539 -40.526,-2.507c-7.201,0.032 -79.236,-0.357 -79.236,-0.357Z" style="fill:#69bac9;"/></g><g id="BROW"><path id="brow" d="M354.448,132.468c-0.132,0.292 -72.296,-11.702 -154.196,-4.295c-1.4,0.127 7.034,-5.568 8.29,-7.297c0.111,-0.153 12.173,-8.415 13.774,-9.529c1.6,-1.115 1.763,-1.419 4.328,-1.523c2.565,-0.104 52.145,-2.117 64.588,-2.02c12.444,0.097 43.264,0.883 43.264,0.883c12.468,0.257 30.294,1.755 30.294,1.755l-1.585,2.829c0,0 -5.245,11.416 -8.757,19.197Z" style="fill-opacity:0.94;stroke:#000;stroke-opacity:0.03;stroke-width:1.16px;"/></g></svg>