<?xml version="1.0" encoding="UTF-8" standalone="no"?><!DOCTYPE svg PUBLIC "-//W3C//DTD SVG 1.1//EN" "http://www.w3.org/Graphics/SVG/1.1/DTD/svg11.dtd"><svg width="100%" height="100%" viewBox="0 0 1024 579" version="1.1" xmlns="http://www.w3.org/2000/svg" xmlns:xlink="http://www.w3.org/1999/xlink" xml:space="preserve" xmlns:serif="http://www.serif.com/" style="fill-rule:evenodd;clip-rule:evenodd;stroke-linejoin:round;stroke-miterlimit:2;"><g id="REAR"><path id="rear-glass" serif:id="rear glass" d="M240.208,207.205l43.235,-44.051c0,-0 -41.243,-11.194 -53.653,-13.765c-12.41,-2.57 -19.534,-4.269 -32.882,-6.535c-13.348,-2.265 -12.484,-2.378 -19.33,-3.169c-6.847,-0.792 -7.02,-1.655 -13.552,2.502c-6.532,4.158 -32.587,21.315 -41.212,27.716c-8.626,6.401 -11.023,8.078 -14.274,10.856c-3.25,2.778 -5.243,3.207 -0.762,5.031c4.481,1.823 34.318,12.411 61.139,18.174c26.821,5.763 43.189,9.834 52.56,9.88c9.371,0.047 14.179,-1.667 16.64,-4.032c2.461,-2.365 2.091,-2.607 2.091,-2.607Z" style="fill:#69bac9;"/></g><g id="SIDES"><path d="M361.811,196.735c0,-0 -12.247,-25.392 -16.145,-32.459c-3.899,-7.067 -3.939,-6.932 -5.362,-9.679c-1.422,-2.746 -2.188,-2.898 0.818,-3.89c3.006,-0.992 11.9,-5.184 23.71,-5.524c11.809,-0.341 24.327,-0.741 32.058,2.666c7.731,3.408 17.89,8.55 22.586,11.95c4.696,3.4 6.323,3.45 9.347,8.87c3.024,5.419 7.629,12.248 6.083,12.993c-1.547,0.744 -73.095,15.073 -73.095,15.073Z" style="fill:#69bac9;"/><path d="M348.903,198.741c3.768,-0.856 8.587,-0.318 7.092,-3.836c-1.495,-3.518 -16.48,-32.509 -18.637,-36.222c-2.156,-3.713 -2.811,-5.98 -7.055,-3.699c-4.244,2.281 -17.02,9.423 -22.343,14.334c-5.324,4.911 -16.071,17.283 -18.673,21.116c-2.602,3.832 -4.658,6.223 -3.98,9.833c0.677,3.609 1.525,5.189 4.369,7.201c2.845,2.011 4.295,2.98 8.103,2.029c3.807,-0.952 47.356,-9.9 51.124,-10.756Z" style="fill:#69bac9;"/><path id="front-left-door" serif:id="front left door" d="M806.853,279.709l-0.578,-6.543c0,0 5.353,-12.739 10.527,-20.648c5.173,-7.909 9.713,-14.949 14.959,-18.281c5.247,-3.331 7.083,-4.565 11.344,-5.781c4.26,-1.217 10.309,-3.366 18.513,-3.941c8.204,-0.575 16.031,-0.443 16.031,-0.443c0,-0 2.923,11.699 4.994,22.535c2.072,10.837 2.505,19.569 2.505,19.569l-36.197,11.79c0,-0 -1.958,-3.273 -5.872,-4.991c-3.914,-1.717 -9.675,-2.831 -13.842,-3.324c-4.167,-0.493 -9.186,-0.51 -13.397,2.018c-4.21,2.529 -8.987,8.04 -8.987,8.04Z" style="fill:#69bac9;"/><path id="left-rear-quarter" serif:id="left rear quarter" d="M881.307,224.025c-0,-0 3.348,11.385 4.781,18.983c1.433,7.598 3.892,20.98 3.892,20.98l0.369,0.708l34.08,-13.087l-0.121,-4.395l-0.654,-1.828l-1.604,-2.114l-2.667,-2.509l-3.619,-2.979l-3.504,-2.419l-3.333,-2.236l-4.355,-2.142l-4.21,-1.935l-4.767,-1.662l-4.396,-1.317l-3.951,-1.197l-4.287,-0.792l-1.654,-0.059Z" style="fill:#69bac9;"/></g><g id="SIDES-NO-STROKE"><path id="inside-right-front" serif:id="inside right front" d="M649.969,263.785l0.271,-2.759l11.659,-11.339l14.283,-11.562l13.712,-9.493l5.644,-3.178l2.273,-0.456l3.14,-0.136l3.837,-0.088l4.469,0.185l4.12,0.155l3.751,0.166l4.343,0.486l3.568,0.583l2.029,0.291l-0.641,1.758c-0,0 -2.661,5.109 -4.75,10.183c-2.089,5.074 -3.149,9.144 -3.149,9.144c0,0 -25.567,5.528 -35.94,8.024c-10.374,2.497 -32.619,8.036 -32.619,8.036Z" style="fill:#69bac9;"/><path id="inside-view-right-rear" serif:id="inside view right rear" d="M740.607,230.913l3.984,-1.558l8.353,0.086l21.15,3.324l0.249,0.877l-7.692,3.218l-2.419,0.172c0,-0 -2.284,-3.256 -7.841,-3.94c-5.557,-0.683 -15.813,-1.212 -15.813,-1.212l0.029,-0.967Z" style="fill:#69bac9;"/></g><g id="WINDSHIELD"><path id="windshield" d="M781.815,283.255c-0,-0 2.385,-4.546 8.544,-16.074c6.158,-11.527 5.94,-11.486 11.457,-20.902c5.517,-9.415 7.736,-11.259 4.61,-11.872c-3.126,-0.614 -38.627,-7.685 -54.344,-9.397c-15.717,-1.712 -55.515,-4.761 -61.452,-4.691c-5.938,0.069 -6.789,0.57 -12.161,4.399c-5.372,3.828 -19.987,14.48 -31.641,24.553c-11.655,10.072 -14.228,12.003 -18.578,15.987c-4.351,3.984 -6.62,5.269 -3.286,6.254c3.335,0.984 18.07,4.421 31.578,6.507c13.508,2.085 50.332,7.467 68.24,9.542c17.908,2.076 23.937,2.916 35.565,2.954c11.628,0.038 18.166,-0.996 19.297,-2.954c1.13,-1.957 2.171,-4.306 2.171,-4.306Z" style="fill:#69bac9;"/></g><g id="BROW"><path id="brow" d="M663.754,235.121c77.177,5.911 133.562,19.297 133.635,19.175c4.9,-8.318 6.629,-11.196 9.103,-15.371c1.2,-2.025 2.829,-4.122 1.677,-4.35c-1.783,-0.354 -16.722,-3.985 -33.567,-6.823c-12.665,-2.134 -26.757,-3.515 -35.202,-4.415c-19.065,-2.032 -44.582,-3.351 -50.519,-3.282c-5.937,0.07 -4.534,0.404 -10.222,3.744c-5.357,3.146 -15.079,11.309 -14.905,11.322Z"/></g></svg>