<?xml version="1.0" encoding="UTF-8" standalone="no"?><!DOCTYPE svg PUBLIC "-//W3C//DTD SVG 1.1//EN" "http://www.w3.org/Graphics/SVG/1.1/DTD/svg11.dtd"><svg width="100%" height="100%" viewBox="0 0 1024 579" version="1.1" xmlns="http://www.w3.org/2000/svg" xmlns:xlink="http://www.w3.org/1999/xlink" xml:space="preserve" xmlns:serif="http://www.serif.com/" style="fill-rule:evenodd;clip-rule:evenodd;stroke-linejoin:round;stroke-miterlimit:2;"><g id="SIDES"><path d="M777.745,255.989c0,-0 2.812,-5.347 2.976,-5.587c0.165,-0.239 5.173,-8.024 5.173,-8.024l5.499,-8.493l5.347,-7.649l4.222,-5.518l3.887,-3.523l5.383,-3.281l7.284,-3.236l7.497,-2.993l9.405,-2.515l7.744,-0.798l8.755,-0.306l6.294,-0.144l2.209,4.963l2.217,5.671l2.858,7.496l2.209,7.245l2.083,7.584l1.603,7.764l0.871,6.621l-42.016,11.95l-4.155,-5.377l-5.807,-3.482l-5.98,-1.469l-6.026,-1.373l-7.226,0.231l-6.078,1.988l-4.584,3.511l-3.946,4.981l-2.15,4.588l-0.366,5.575l-1.91,1.047l-3.272,-17.447Z" style="fill:#69bac9;"/><path d="M861.086,204.773l1.825,3.82l1.996,4.732l2.217,5.988l2.227,7.842l2.285,7.974l1.581,8.657l1.325,7.035l36.634,-10.442l-3.924,-4.77l-4.53,-4.961l-5.432,-4.983l-7.247,-6.477l-8.387,-6.631l-7.306,-4.473l-6.659,-2.754l-6.605,-0.557Z" style="fill:#69bac9;"/><path d="M318.915,193.855l-0.012,-3.063l1.266,-6.683l2.481,-8.126l2.531,-6.683l2.513,-5.905l3.12,-5.398l3.214,-4.159l3.393,-3.632l3.976,-3.158l5.112,-3.17l5.209,-2.715l4.354,-1.798l1.671,-0.614l1.374,2.671l2.005,3.739l2.425,5.634l3.543,7.904l2.823,7.581l2.804,6.911l1.925,6.273l2.346,6.626l0.88,4.044l-7.264,0.868l-8.216,1.176l-10.682,1.399l-8.355,1.17l-6.999,0.348l-7.619,0.172l-6.539,-0.259l-3.279,-1.153Z" style="fill:#69bac9;"/><path d="M390.252,188.58l65.069,-11.353l-7.598,-18.561l-3.908,-3.145l-5.274,-3.733l-7.087,-4.97l-6.255,-4.025l-8.017,-4.483l-6.254,-3.063l-6.101,-2.057l-5.151,-0.166l-6.081,0.385l-7.866,1.001l-6.919,1.1l-6.168,1.063l-6.646,1.67l1.729,2.834l2.925,4.904l2.753,5.519l3.696,7.327l3.603,7.462l3.013,6.854l2.041,5.16l2.627,5.593l1.869,4.684Z" style="fill:#69bac9;"/></g><g id="SIDES-NO-STROKE"><path d="M602.03,248.484l63.891,-46.237l1.431,-0.237l2.397,0.111l24.225,0.633l0.044,1.244l-2.345,2.897l-2.303,3.95l-2.19,4.066l-1.863,4.075l-2.033,4.357l-1.705,4.709l-1.365,3.88l-1.191,3.449l-76.993,13.103Z" style="fill:#69bac9;"/><path d="M701.286,229.827l3.869,-7.337l2.502,0.229l3.579,0.129l3.718,0l2.648,-0.866l1.499,-2.204l1.023,-3.168l-0.077,-3.046l-1.066,-2.035l-2.539,-1.438l-3.394,-1.117l-1.845,-0.54l6.264,-0.801l6.891,-0.698l6.374,0.065l8.071,0.342l8.048,0.496l4.509,0.394l1.523,0.496l0.572,1.137c0,0 1.16,6.105 1.241,6.221c0.081,0.117 -4.744,-2.079 -4.744,-2.079l-5.275,-1.019l-4.783,-0.548l-5.557,-0.073l-4.207,0.331l-3.236,1.265l-2.381,1.636l-2.035,2.538l-1.519,2.934l-1.318,2.785l-0.923,2.514l-2.437,0.976l-14.995,2.481Z" style="fill:#69bac9;"/></g><g id="REAR"><path id="rear-glass" serif:id="rear glass" d="M145.351,166.93l2.838,-3.047l4.442,-4.305l4.903,-4.317l5.127,-4.181l3.412,-2.833l2.679,-2.295l1.845,-1.543l2.396,-1.454l2.494,-1.024l2.615,-0.455l4.442,-0.059l5.558,0.29l6.878,0.348l5.606,0.739l5.258,0.828l6.102,0.905l4.725,0.841l7.156,0.987l7.849,1.443l8.74,1.537l7.329,1.129l7.377,1.77l4.436,1.248l4.714,1.862l3.33,2.295l0.704,2.011l-1.143,2.939l-2.212,3.862l-3.548,5.015l-4.471,6.641l-2.318,3.956l-2.501,2.639l-3.443,1.567l-4.345,0.556l-4.78,-0.096l-21.212,-3.305l-38.126,-7.026l-25.4,-4.802l-5.253,-1.312l-2.299,-0.835l-1.645,-0.774l-0.259,-1.745Z" style="fill:#69bac9;"/></g><g id="WINDSHIELD"><path id="windshield" d="M577.438,251.762l0.905,-1.833l1.609,-1.505l5.6,-4.639l5.657,-4.599l8.423,-6.659l7.881,-6.119l8.469,-6.465l7.396,-5.487l6.434,-4.245l6.894,-5.205l5.269,-3.548l4.454,-2.722l3.248,-1.182l2.642,-0.525l5.716,-0.202l7.644,0.07l9.038,0.381l14.798,0.808l14.572,1.025l13.335,1.132l12.625,1.237l12.849,1.522l13.318,2.255l11.057,1.907l8.738,1.333l4.744,1.124l2.619,1.05l1.301,0.988l0.744,1.656l-1.634,2.983l-26.112,40.864l-3.017,5.237l-2.884,3.112l-2.814,2.626l-3.19,0.831l-6.36,0.501l-13.216,-0.574l-16.035,-1.454l-15.372,-1.253l-15.809,-1.77l-12.853,-1.511l-9.859,-1.472l-13.245,-1.485l-12.31,-1.461l-13.224,-1.693l-12.865,-1.694l-9.77,-0.889l-10.202,-1.618l-7.208,-0.833Z" style="fill:#69bac9;"/></g><g id="BROW"><path id="brow" d="M774.662,230.276c-55.162,-8.821 -146.794,-18.782 -146.794,-18.782l8.838,-6.488l5.269,-3.548l4.454,-2.722l3.248,-1.182l2.642,-0.525l5.716,-0.202l7.644,0.07l9.038,0.381l14.798,0.808l14.572,1.025l13.335,1.132l12.625,1.237l12.849,1.522l13.318,2.255l11.057,1.907l8.738,1.333l4.744,1.124l2.619,1.05l1.301,0.988l0.744,1.656c-0,0 -10.005,17.08 -10.755,16.961Z"/></g></svg>