<?xml version="1.0" encoding="UTF-8" standalone="no"?><!DOCTYPE svg PUBLIC "-//W3C//DTD SVG 1.1//EN" "http://www.w3.org/Graphics/SVG/1.1/DTD/svg11.dtd"><svg width="100%" height="100%" viewBox="0 0 1024 579" version="1.1" xmlns="http://www.w3.org/2000/svg" xmlns:xlink="http://www.w3.org/1999/xlink" xml:space="preserve" xmlns:serif="http://www.serif.com/" style="fill-rule:evenodd;clip-rule:evenodd;stroke-linejoin:round;stroke-miterlimit:2;"><g id="FACTORYTINT"><path id="rightrearside" d="M150.105,233.652l0.054,-3.584l0.867,-4.344l0.862,-4.842l1.854,-8.601l2.117,-8.548l2.615,-9.928l2.678,-8.786l1.37,-4.232l0.688,-1.536l1.336,-0.363l2.175,0.537l2.185,0.805l2.29,0.813l1.52,0.669l0.532,0.9l-0.629,3.009l-1.457,4.397l-1.714,7.051l-2.04,7.081l-2.189,8.673l-1.318,6.809l-1.345,6.48l-0.718,5.327l-0.696,3.869l-0.252,3.022l-0.446,1.312l-1.633,0.088l-3.263,-0.784l-2.615,-0.974l-2.112,-1.55l-0.935,-1.613l0.219,-1.157Z" style="fill:#69bac9;"/><path id="leftrearside" d="M637.044,209.504l0.67,-6.038l1.57,-8.836l2.12,-9.918l2.871,-10.633l2.667,-10.835l2.333,-6.865l0.85,-2.562l1.406,-0.898l2.98,0.332l2.79,0.959l3.427,1.34l1.778,1.108l0.487,1.833l-0.993,4.509l-1.341,5.552l-1.097,4.767l-2.324,9.556l-2.469,11.259l-1.559,8.164l-1.013,5.94l-0.89,4.38l-1.311,1.902l-1.867,0.562l-3.794,0.213l-3.427,-0.671l-2.726,-1.564l-1.362,-0.824l0.224,-2.732Z" style="fill:#69bac9;"/></g><g id="FRONT-DOORS"><path id="rightfrontside" d="M164.071,240.574l0.096,-5.231l0.738,-3.459l1.231,-7.505l1.578,-7.462l3.788,-15.599l4.008,-15.384l0.695,-1.93l0.838,-1.026l1.644,0.094l4.317,1.895l6.522,3.311l5.696,3.217l5.319,4.424l4.242,5.239l4.738,9.893l5.625,14.913l4.282,10.895l0.543,2.36l-0.413,1.92l-0.856,2.731l-0.542,4.492l-0.227,5.071l-0.131,3.882l-0.083,1.472l-1.164,0.114l-0.692,-2.259l-1.233,-3.616l-1.94,-3.461l-2.439,-2.672l-2.827,-2.759l-3.304,-1.528l-3.008,0.049l-4.81,0.007l-4.286,0.493l-5.15,0.964l-4.467,1.543l-3.718,2.217l-3.597,-1.075l-4.233,-2.051l-4.323,-2.369l-2.457,-1.81Z" style="fill:#69bac9;"/><path id="leftfront" d="M582.507,191.285l-1.625,-0.814l-1.074,-1.063l0.593,-2.948l1.458,-5.562l1.349,-6.055l1.036,-3.335l0.111,-1.479l2.497,-2.116l3.538,-3.595l5.999,-5.509l5.591,-5.083l5.544,-5.082l4.01,-2.922l3.218,-1.516l4.647,-0.913l3.696,0.212l5.204,1.192l4.761,1.525l5.785,1.709l5.193,2.062l2.93,1.016l0.731,2.099l-1.414,4.167l-2.608,8.605c-0,-0 -3.179,10.763 -5.231,19.676c-2.052,8.912 -3.986,23.656 -4.13,24.305c-0.144,0.648 -2.449,0.156 -2.449,0.156l-49.36,-18.732Z" style="fill:#69bac9;"/></g><g id="SIDES"><path id="rightrearside1" serif:id="rightrearside" d="M150.105,233.652l0.054,-3.584l0.867,-4.344l0.862,-4.842l1.854,-8.601l2.117,-8.548l2.615,-9.928l2.678,-8.786l1.37,-4.232l0.688,-1.536l1.336,-0.363l2.175,0.537l2.185,0.805l2.29,0.813l1.52,0.669l0.532,0.9l-0.629,3.009l-1.457,4.397l-1.714,7.051l-2.04,7.081l-2.189,8.673l-1.318,6.809l-1.345,6.48l-0.718,5.327l-0.696,3.869l-0.252,3.022l-0.446,1.312l-1.633,0.088l-3.263,-0.784l-2.615,-0.974l-2.112,-1.55l-0.935,-1.613l0.219,-1.157Z" style="fill:#69bac9;"/><path id="rightfrontside1" serif:id="rightfrontside" d="M164.071,240.574l0.096,-5.231l0.738,-3.459l1.231,-7.505l1.578,-7.462l3.788,-15.599l4.008,-15.384l0.695,-1.93l0.838,-1.026l1.644,0.094l4.317,1.895l6.522,3.311l5.696,3.217l5.319,4.424l4.242,5.239l4.738,9.893l5.625,14.913l4.282,10.895l0.543,2.36l-0.413,1.92l-0.856,2.731l-0.542,4.492l-0.227,5.071l-0.131,3.882l-0.083,1.472l-1.164,0.114l-0.692,-2.259l-1.233,-3.616l-1.94,-3.461l-2.439,-2.672l-2.827,-2.759l-3.304,-1.528l-3.008,0.049l-4.81,0.007l-4.286,0.493l-5.15,0.964l-4.467,1.543l-3.718,2.217l-3.597,-1.075l-4.233,-2.051l-4.323,-2.369l-2.457,-1.81Z" style="fill:#69bac9;"/><path id="leftfront1" serif:id="leftfront" d="M582.507,191.285l-1.625,-0.814l-1.074,-1.063l0.593,-2.948l1.458,-5.562l1.349,-6.055l1.036,-3.335l0.111,-1.479l2.497,-2.116l3.538,-3.595l5.999,-5.509l5.591,-5.083l5.544,-5.082l4.01,-2.922l3.218,-1.516l4.647,-0.913l3.696,0.212l5.204,1.192l4.761,1.525l5.785,1.709l5.193,2.062l2.93,1.016l0.731,2.099l-1.414,4.167l-2.608,8.605c-0,-0 -3.179,10.763 -5.231,19.676c-2.052,8.912 -3.986,23.656 -4.13,24.305c-0.144,0.648 -2.449,0.156 -2.449,0.156l-49.36,-18.732Z" style="fill:#69bac9;"/><path id="leftrearside1" serif:id="leftrearside" d="M637.044,209.504l0.67,-6.038l1.57,-8.836l2.12,-9.918l2.871,-10.633l2.667,-10.835l2.333,-6.865l0.85,-2.562l1.406,-0.898l2.98,0.332l2.79,0.959l3.427,1.34l1.778,1.108l0.487,1.833l-0.993,4.509l-1.341,5.552l-1.097,4.767l-2.324,9.556l-2.469,11.259l-1.559,8.164l-1.013,5.94l-0.89,4.38l-1.311,1.902l-1.867,0.562l-3.794,0.213l-3.427,-0.671l-2.726,-1.564l-1.362,-0.824l0.224,-2.732Z" style="fill:#69bac9;"/></g><g id="REAR"><path id="rear-glass" serif:id="rear glass" d="M685.38,213.581l-2.12,0.263l-1.376,-0.387l-0.238,-2.811l0.644,-3.368c0,0 2.546,-20.784 4.369,-29.202c1.823,-8.419 1.653,-8.361 2.448,-11.279c0.796,-2.919 1.816,-4.236 4.987,-5.175c3.17,-0.94 53.928,-11.666 53.928,-11.666l48.879,-8.467c-0,0 7.329,-1.287 15.769,-2.25c8.439,-0.963 14.004,-2.317 15.693,2.638c1.689,4.955 8.59,26.62 9.982,31.179c1.392,4.559 2.836,8.064 -1.922,9.217c-4.757,1.154 -51.114,12.01 -66.722,15.185c-15.608,3.174 -84.321,16.123 -84.321,16.123Z" style="fill:#69bac9;"/></g><g id="SIDES--NO-STROKE" serif:id="SIDES -NO-STROKE"><path id="insideleftfront" d="M337.012,204.848l-0.829,-2.786l-1.255,-5.791l-2.427,-6.626l-2.542,-6.342l-1.87,-2.768l2.223,-0.339l3.834,-0.739l5.2,-1.01l3.614,-1.055l3.828,-1.468l3.589,-0.32l4.153,0.973l4.68,3.776l5.503,6.024l5.917,6.814l21.696,22.988l0.936,1.733l-3.169,2.396l-1.7,0.076l-51.381,-15.536Z" style="fill:#69bac9;"/></g><g id="WINDSHIELD"><path id="windshield" d="M222.382,195.307l-0.958,-1.342l0.787,-1.192l2.284,-0.343c0,0 28.852,-5.222 44.661,-7.798c15.81,-2.575 40.133,-7.031 59.643,-10.593c19.51,-3.561 23.895,-4.137 29.405,-5.395c5.51,-1.257 7.461,-1.81 11.35,1.786c3.89,3.595 18.632,18.115 24.614,24.588c5.981,6.473 11.101,12.676 16.674,19.253c5.574,6.577 13.823,12.128 8.178,14.445c-5.645,2.318 -35.331,11.161 -51.741,14.898c-16.411,3.737 -55.304,11.785 -72.447,14.446c-17.144,2.66 -19.456,3.602 -29.421,3.93c-9.964,0.328 -15.175,0.144 -18.86,-8.326c-3.684,-8.47 -24.169,-58.357 -24.169,-58.357Z" style="fill:#69bac9;"/></g><g id="BROW"><path id="windshield1" serif:id="windshield" d="M222.382,195.307l-0.958,-1.342l0.787,-1.192l2.284,-0.343c0,0 28.852,-5.222 44.661,-7.798c15.81,-2.575 40.133,-7.031 59.643,-10.593c19.51,-3.561 23.895,-4.137 29.405,-5.395c5.51,-1.257 7.461,-1.81 11.35,1.786c3.89,3.595 8.441,7.058 13.94,13.355c1.207,1.382 -153.484,31.193 -153.527,31.097c-1.098,-2.496 -2.942,-8.209 -4.523,-11.803c-2.159,-4.91 -3.062,-7.772 -3.062,-7.772Z"/></g></svg>